<?xml version="1.0" encoding="utf-8"?>
<!-- Svg Vector Icons : http://www.onlinewebfonts.com/icon -->
<!DOCTYPE svg PUBLIC "-//W3C//DTD SVG 1.1//EN" "http://www.w3.org/Graphics/SVG/1.1/DTD/svg11.dtd">
<svg version="1.1" xmlns="http://www.w3.org/2000/svg" xmlns:xlink="http://www.w3.org/1999/xlink" x="0px" y="0px" width="85px" height="85px" viewBox="0 0 1000 1000" enable-background="new 0 0 1000 1000" xml:space="preserve">
<metadata> Svg Vector Icons : http://www.onlinewebfonts.com/icon </metadata>
<g><g transform="translate(0.000000,404.000000) scale(0.100000,-0.100000)"><path style="fill:rgb(255,255,255);" d="M1727.3,3451.9c72.3-129.2,588.9-728.4,1343.2-1560.1c640.6-697.4,743.9-883.4,501.1-883.4c-87.8,0-248,113.7-501.1,351.3c-495.9,464.9-1296.7,1177.8-1606.6,1425.8c-568.3,464.9-227.3-5.1,940.2-1291.5c521.8-573.4,728.4-836.9,728.4-929.9c0-263.4-160.2-160.1-1167.5,764.6c-852.4,774.9-1301.8,1152-1343.2,1115.8c-36.1-36.2,573.4-764.6,1369-1632.4C2615.9,125,2734.7-76.5,2497.1-76.5c-77.5,0-304.8,170.5-656.1,495.9c-299.6,273.8-795.6,718.1-1105.5,981.5c-945.4,816.2-842.1,599.3,351.3-728.4C2135.5-500.1,2548.7-892.7,2781.2-954.7c248-67.2,495.9-31,780,113.7l206.6,103.3l356.5-356.5c196.3-191.2,402.9-413.3,459.8-485.6l98.1-139.4l-764.6-687.1C2512.6-3687.6,1954.6-4250.6,1861.6-4498.6c-165.3-439.1,5.2-857.5,377.1-929.9c237.6-46.5,583.8,62,805.9,242.8c98.2,82.7,650.9,707.8,1219.2,1384.5c568.3,681.9,1064.2,1255.4,1095.2,1276c36.2,20.7,98.2-10.3,144.6-67.1c46.5-56.8,568.3-666.4,1157.2-1348.3c898.9-1038.4,1115.9-1265.7,1338-1374.2c310-155,495.9-165.3,738.7-56.8c196.3,98.1,284.1,263.4,284.1,552.8c0,433.9-129.2,588.9-1508.5,1787.4c-712.9,614.8-1343.2,1162.4-1405.2,1208.9c-103.3,82.6-103.3,87.8-15.5,185.9c51.7,56.8,248,149.8,434,211.8c780,258.3,1513.6,718.1,2004.4,1255.4c831.7,919.5,1369,2112.9,1369,3047.9c0,299.6-15.5,351.3-87.8,351.3c-51.7,0-1064.2-971.2-2273.1-2180.1L5359-1130.4l-170.5,149.8c-93,82.6-325.5,299.6-511.5,480.4l-341,325.4l124,237.7c139.5,284.1,155,666.4,36.1,919.5C4393,1204.7,2094.1,3322.7,1773.8,3498.4C1691.2,3539.7,1686,3534.5,1727.3,3451.9z"/></g></g>
</svg>